<mxfile host="app.diagrams.net" agent="Mozilla/5.0 (Windows NT 10.0; Win64; x64) AppleWebKit/537.36 (KHTML, like Gecko) Chrome/130.0.0.0 Safari/537.36 Edg/130.0.0.0" version="24.7.10">
  <diagram name="第 1 页" id="S4vARhh8KjMdQaPIsJIj">
    <mxGraphModel dx="1066" dy="602" grid="1" gridSize="10" guides="1" tooltips="1" connect="1" arrows="1" fold="1" page="1" pageScale="1" pageWidth="827" pageHeight="1169" math="0" shadow="0">
      <root>
        <mxCell id="0" />
        <mxCell id="1" parent="0" />
        <mxCell id="u7QFWZwP_d8b8XSbBpdV-6" style="edgeStyle=orthogonalEdgeStyle;rounded=0;orthogonalLoop=1;jettySize=auto;html=1;entryX=0.5;entryY=0;entryDx=0;entryDy=0;fontSize=14;" edge="1" parent="1" source="u7QFWZwP_d8b8XSbBpdV-1" target="u7QFWZwP_d8b8XSbBpdV-2">
          <mxGeometry relative="1" as="geometry" />
        </mxCell>
        <mxCell id="u7QFWZwP_d8b8XSbBpdV-7" style="edgeStyle=orthogonalEdgeStyle;rounded=0;orthogonalLoop=1;jettySize=auto;html=1;fontSize=14;" edge="1" parent="1" source="u7QFWZwP_d8b8XSbBpdV-1" target="u7QFWZwP_d8b8XSbBpdV-3">
          <mxGeometry relative="1" as="geometry" />
        </mxCell>
        <mxCell id="u7QFWZwP_d8b8XSbBpdV-1" value="CHARLS数据库" style="rounded=0;whiteSpace=wrap;html=1;fontSize=14;" vertex="1" parent="1">
          <mxGeometry x="200" y="200" width="120" height="60" as="geometry" />
        </mxCell>
        <mxCell id="u7QFWZwP_d8b8XSbBpdV-9" style="edgeStyle=orthogonalEdgeStyle;rounded=0;orthogonalLoop=1;jettySize=auto;html=1;fontSize=14;" edge="1" parent="1" source="u7QFWZwP_d8b8XSbBpdV-2" target="u7QFWZwP_d8b8XSbBpdV-5">
          <mxGeometry relative="1" as="geometry" />
        </mxCell>
        <mxCell id="u7QFWZwP_d8b8XSbBpdV-2" value="15种慢性病提取" style="rounded=0;whiteSpace=wrap;html=1;fontSize=14;" vertex="1" parent="1">
          <mxGeometry x="90" y="340" width="120" height="60" as="geometry" />
        </mxCell>
        <mxCell id="u7QFWZwP_d8b8XSbBpdV-8" style="edgeStyle=orthogonalEdgeStyle;rounded=0;orthogonalLoop=1;jettySize=auto;html=1;exitX=0.5;exitY=1;exitDx=0;exitDy=0;fontSize=14;" edge="1" parent="1" source="u7QFWZwP_d8b8XSbBpdV-3" target="u7QFWZwP_d8b8XSbBpdV-4">
          <mxGeometry relative="1" as="geometry" />
        </mxCell>
        <mxCell id="u7QFWZwP_d8b8XSbBpdV-3" value="住址信息提取(具体到县、区)" style="rounded=0;whiteSpace=wrap;html=1;fontSize=14;" vertex="1" parent="1">
          <mxGeometry x="320" y="340" width="120" height="60" as="geometry" />
        </mxCell>
        <mxCell id="u7QFWZwP_d8b8XSbBpdV-4" value="地理编码" style="rounded=0;whiteSpace=wrap;html=1;fontSize=14;" vertex="1" parent="1">
          <mxGeometry x="320" y="440" width="120" height="60" as="geometry" />
        </mxCell>
        <mxCell id="u7QFWZwP_d8b8XSbBpdV-5" value="整理、清洗" style="rounded=0;whiteSpace=wrap;html=1;fontSize=14;" vertex="1" parent="1">
          <mxGeometry x="90" y="440" width="120" height="60" as="geometry" />
        </mxCell>
        <mxCell id="u7QFWZwP_d8b8XSbBpdV-10" value="高分辨率污染物数据集" style="rounded=0;whiteSpace=wrap;html=1;fontSize=14;" vertex="1" parent="1">
          <mxGeometry x="707" y="200" width="120" height="60" as="geometry" />
        </mxCell>
      </root>
    </mxGraphModel>
  </diagram>
</mxfile>
